<?xml version="1.0" encoding="UTF-8" standalone="no"?>
<!-- Created with Inkscape (http://www.inkscape.org/) -->

<svg
   xmlns:dc="http://purl.org/dc/elements/1.1/"
   xmlns:cc="http://creativecommons.org/ns#"
   xmlns:rdf="http://www.w3.org/1999/02/22-rdf-syntax-ns#"
   xmlns:svg="http://www.w3.org/2000/svg"
   xmlns="http://www.w3.org/2000/svg"
   xmlns:sodipodi="http://sodipodi.sourceforge.net/DTD/sodipodi-0.dtd"
   xmlns:inkscape="http://www.inkscape.org/namespaces/inkscape"
   version="1.1"
   id="svg2"
   width="2731"
   height="2731"
   viewBox="0 0 2731 2731"
   sodipodi:docname="deliveryLogo.svg"
   inkscape:version="0.92.4 (5da689c313, 2019-01-14)">
  <metadata
     id="metadata8">
    <rdf:RDF>
      <cc:Work
         rdf:about="">
        <dc:format>image/svg+xml</dc:format>
        <dc:type
           rdf:resource="http://purl.org/dc/dcmitype/StillImage" />
        <dc:title></dc:title>
      </cc:Work>
    </rdf:RDF>
  </metadata>
  <defs
     id="defs6" />
  <sodipodi:namedview
     pagecolor="#ffffff"
     bordercolor="#666666"
     borderopacity="1"
     objecttolerance="10"
     gridtolerance="10"
     guidetolerance="10"
     inkscape:pageopacity="0"
     inkscape:pageshadow="2"
     inkscape:window-width="1920"
     inkscape:window-height="1001"
     id="namedview4"
     showgrid="false"
     inkscape:zoom="0.2592457"
     inkscape:cx="1365.5"
     inkscape:cy="1365.5"
     inkscape:window-x="-9"
     inkscape:window-y="-9"
     inkscape:window-maximized="1"
     inkscape:current-layer="svg2"
     inkscape:pagecheckerboard="true" />
  <path
     style="fill:#666666;fill-opacity:0.53211012;stroke:#000000;stroke-width:7.2894702;stroke-miterlimit:4;stroke-dasharray:none;stroke-opacity:1"
     d="m 1334.2555,2359.1571 c -10.6077,-4.0192 -166.8301,-57.837 -347.16101,-119.5951 -675.46597,-231.3275 -625.79171,-213.9217 -635.49753,-222.6773 -6.37831,-5.7538 -6.75035,-42.0545 -6.75035,-658.6391 V 705.69591 l 8.67903,-7.68467 c 4.9607,-4.39237 73.12984,-28.75855 159.11546,-56.87378 82.74004,-27.054 215.52913,-70.63076 295.08687,-96.83724 392.49153,-129.28752 550.37383,-180.35385 557.61033,-180.35666 7.5611,-0.003 84.2546,24.87354 663.2392,215.12973 137.9001,45.31441 271.1957,88.94051 296.2124,96.9469 25.0167,8.0064 48.8841,17.72382 53.0385,21.59427 7.4424,6.93363 7.5535,16.64883 7.5535,660.10904 0,649.3928 -0.044,653.1113 -7.7581,660.0928 -4.267,3.8616 -42.0208,18.7352 -83.8973,33.0526 -86.668,29.6312 -378.2547,129.6792 -700.9578,240.5096 -120.8887,41.5185 -224.1691,75.3977 -229.512,75.2872 -5.343,-0.1107 -18.3935,-3.4894 -29.0012,-7.5086 z m 1.9287,-679.903 V 1064.931 L 874.26716,913.44328 C 620.2128,830.12498 410.18038,762.01307 407.52846,762.08339 c -3.83638,0.10176 -4.82168,124.16846 -4.82168,607.13181 v 607.0039 l 33.75177,11.9317 c 31.53397,11.1475 451.86859,155.4681 615.96125,211.4883 40.4465,13.8082 117.8021,40.4831 171.9014,59.2775 54.0992,18.7944 101.3999,34.2816 105.1126,34.4161 6.4017,0.2318 6.7504,-31.4875 6.7504,-614.0786 z m 124.0726,595.2572 c 61.2994,-21.1366 339.258,-116.4841 631.9669,-216.7822 105.0162,-35.9843 200.9195,-69.0399 213.1183,-73.4569 l 22.1798,-8.031 v -607.015 c 0,-575.59316 -0.3495,-607.00738 -6.7504,-606.86971 -3.7127,0.0798 -63.164,18.82265 -132.1141,41.65064 l -125.3637,41.50546 -1.9286,151.08273 c -1.6258,127.35408 -2.8375,151.99038 -7.7147,156.86148 -5.1163,5.1098 -102.3977,40.3809 -273.043,98.9965 -30.3067,10.4101 -59.7034,18.9275 -65.3263,18.9275 -5.6227,0 -14.2406,-3.7742 -19.1508,-8.3871 l -8.9277,-8.3871 v -142.0493 c 0,-111.2648 -1.0449,-141.96939 -4.8216,-141.6802 -2.652,0.20289 -68.1786,21.46666 -145.6148,47.2525 l -140.7931,46.8833 -0.9762,614.2821 c -0.8393,528.2012 -0.2094,614.2821 4.495,614.2821 3.0091,0 30.3533,-8.5796 60.765,-19.0658 z m 425.599,-1120.8039 c 46.6739,-16.3264 92.2387,-32.276 101.2553,-35.4436 l 16.3937,-5.7593 V 989.43204 c 0,-67.68984 -1.3019,-123.00709 -2.893,-122.92725 -1.5912,0.0799 -59.3067,18.82308 -128.2567,41.65161 l -125.3637,41.50646 -1.0206,121.28574 c -0.5614,66.7071 -0.2106,123.3963 0.7792,125.976 1.3226,3.4464 8.7541,2.2739 28.0221,-4.4213 14.4221,-5.0113 64.4098,-22.4695 111.0837,-38.7959 z M 1488.0557,972.33884 c 68.1608,-22.32994 126.5323,-41.54052 129.7146,-42.6902 5.0299,-1.81716 4.9785,-2.5438 -0.3932,-5.56032 -3.3986,-1.90854 -192.6014,-72.26064 -420.4506,-156.33807 L 782.65523,614.88219 690.07895,645.04243 c -188.23797,61.32569 -210.55809,69.03257 -210.69006,72.74882 -0.138,3.8864 30.39824,14.20612 411.27199,138.98937 120.92772,39.61879 276.28232,90.8061 345.23232,113.74959 68.9501,22.94348 126.0095,41.87139 126.7988,42.06199 0.7894,0.1905 57.203,-17.92343 125.3637,-40.25336 z m 340.4456,-111.95002 c 57.0034,-18.46148 105.076,-34.86966 106.8279,-36.46263 1.7519,-1.59297 -1.7198,-4.62904 -7.7147,-6.74692 -5.995,-2.11784 -195.2561,-71.88027 -420.5803,-155.02761 l -409.6804,-151.177 -107.20383,35.41899 c -58.9621,19.48045 -108.51547,36.61574 -110.11862,38.07843 -1.60316,1.46269 57.41422,24.88989 131.14975,52.06046 326.6555,120.36828 496.407,183.02772 596.9459,220.34729 59.4031,22.05017 109.969,39.41265 112.3686,38.58329 2.3997,-0.82937 51.0022,-16.61282 108.0057,-35.0743 z m 318.9323,-104.42974 c 69.6109,-23.08851 109.8334,-38.21832 106.4504,-40.04157 -2.9908,-1.61181 -204.3866,-68.17408 -447.5461,-147.91615 l -442.1084,-144.98559 -82.4905,27.36532 c -45.3698,15.05093 -83.9127,28.65408 -85.6509,30.22925 -1.7382,1.57516 23.431,12.6707 55.9315,24.65677 32.5005,11.98607 220.5217,81.50881 417.8249,154.49498 197.3032,72.98616 360.3008,132.83845 362.217,133.00505 1.9162,0.16664 53.8336,-16.39703 115.3721,-36.80806 z"
     id="path12"
     inkscape:connector-curvature="0" />
  <path
     style="fill:#1a1a1a;fill-opacity:0.53211012;stroke:#000000;stroke-width:7.2894702;stroke-miterlimit:4;stroke-dasharray:none;stroke-opacity:1"
     d="m 1340.0415,2355.3757 c -15.3398,-4.9522 -602.29132,-206.8932 -786.89828,-270.7327 -92.28697,-31.9141 -173.54928,-59.9068 -180.58291,-62.206 -7.03363,-2.2993 -14.74132,-7.7599 -17.1282,-12.1349 -3.16341,-5.7983 -4.40209,-183.6152 -4.56963,-655.9884 l -0.22985,-648.0339 18.06553,-8.63363 c 9.93604,-4.7485 67.21761,-24.99799 127.29237,-44.99888 140.38651,-46.73933 766.47567,-251.73554 825.25317,-270.20715 l 44.8484,-14.09421 49.6566,16.00596 c 214.7819,69.23134 935.7272,306.7058 946.4755,311.76257 l 13.5144,6.35811 3.0729,154.26875 c 3.5492,178.18058 1.0295,1142.34958 -3.0111,1152.21438 -3.7267,9.0983 -17.0468,13.9414 -401.2257,145.8842 -459.4446,157.792 -599.4869,204.3729 -613.2549,203.9805 -6.3992,-0.1824 -15.9744,-1.7324 -21.2783,-3.4447 z m -2.4108,-69.9954 c 1.3259,-6.6298 2.4108,-284.8986 2.4108,-618.375 V 1060.6846 L 1142.3526,995.6988 C 762.32139,870.7721 427.68187,762.19502 415.77901,759.95491 c -10.24922,-1.92887 -12.35248,-0.94393 -14.41237,6.74931 -1.32653,4.9543 -2.43556,280.05748 -2.46453,611.34048 l -0.0527,602.3328 12.53637,4.4929 c 16.74388,6.0007 745.34092,256.636 836.07952,287.6088 39.2484,13.3972 75.0494,24.4928 79.5577,24.6569 6.1927,0.2252 8.7863,-2.6488 10.6077,-11.7558 z m 419.004,-106.8575 c 367.1637,-125.9258 557.4383,-191.4418 567.994,-195.5737 6.3886,-2.5007 6.7504,-34.7406 6.7504,-601.5645 0,-329.4072 -1.0849,-604.34663 -2.4108,-610.97644 -1.5025,-7.51234 -4.7727,-12.08398 -8.6791,-12.13324 -3.4475,-0.0436 -63.7105,18.45126 -133.9177,41.09935 l -127.6495,41.17835 -2.665,146.78932 c -1.4658,80.73416 -3.6266,150.62066 -4.8019,155.30336 -2.2877,9.1148 -6.7451,11.0561 -111.3965,48.5167 -106.0414,37.9581 -212.3274,72.9306 -222.7732,73.3016 -5.8406,0.2075 -14.0857,-2.7598 -18.3224,-6.594 -7.4303,-6.7243 -7.7031,-11.9405 -7.7031,-147.2875 0,-124.32596 -0.6946,-140.58282 -6.0947,-142.65506 -3.3521,-1.28635 -71.0485,19.08398 -150.4365,45.26736 l -144.3417,47.6062 v 606.2627 c 0,333.4445 1.1221,611.873 2.4935,618.73 2.2875,11.4376 3.4821,12.3029 14.465,10.4774 6.5844,-1.0944 163.8545,-54.081 349.4892,-117.7479 z m 128.8447,-1019.0191 c 59.6101,-20.8452 111.4197,-39.1022 115.1324,-40.5712 6.2347,-2.4668 6.7503,-12.1991 6.7503,-127.39423 0,-88.28397 -1.2688,-125.50754 -4.3428,-127.4074 -2.3886,-1.47624 -62.2739,16.17847 -133.0784,39.23267 l -128.7355,41.91676 v 128.0127 c 0,98.9636 1.0941,128.385 4.8216,129.6533 7.0161,2.3872 19.6442,-1.5467 139.4524,-43.4426 z M 1496.3109,975.22236 c 91.2,-29.81199 127.5171,-43.31829 128.3687,-47.74024 1.2835,-6.66464 -36.6869,-21.18739 -571.75,-218.6804 L 783.1757,609.23494 682.6245,641.82838 c -180.71668,58.5789 -204.6995,67.49447 -204.6995,76.09666 0,6.61799 18.85769,13.94448 140.79308,54.70016 335.32927,112.08051 735.43952,243.4271 742.61792,243.7837 4.2866,0.2129 65.0253,-18.32101 134.9749,-41.18654 z m 330.3069,-108.82858 c 58.0394,-19.07507 108.1298,-36.37036 111.3121,-38.43396 5.1432,-3.33514 5.1432,-4.37932 0,-9.39792 -6.2868,-6.13457 -830.1161,-310.93535 -840.4101,-310.93535 -7.7582,0 -212.36409,68.10801 -220.35963,73.35203 -8.07061,5.29327 -4.00929,7.58976 54.00282,30.536 96.08261,38.00471 776.36451,287.89522 787.44911,289.25659 1.3638,0.16741 49.9663,-15.30232 108.0057,-34.37739 z m 307.5998,-100.82277 c 100.9427,-33.3383 125.3029,-43.41585 122.8443,-50.81934 -1.2688,-3.82075 -474.6071,-161.67647 -807.589,-269.32652 l -85.3645,-27.59759 -66.0106,21.79998 c -87.2763,28.82293 -108.4927,36.93599 -108.4927,41.48701 0,7.09282 2.7849,8.15311 621.0325,236.43759 117.7454,43.47684 217.3576,79.12226 221.3604,79.21206 4.0028,0.0899 50.0016,-13.94716 102.2196,-31.19319 z"
     id="path14"
     inkscape:connector-curvature="0" />
  <path
     style="fill:#1a1a1a;fill-opacity:0.53211012;stroke:#000000;stroke-width:7.2894702;stroke-miterlimit:4;stroke-dasharray:none;stroke-opacity:1"
     d="m 1351.8222,2352.2046 c -8.6762,-1.3812 -919.68746,-313.7935 -968.78043,-332.2231 l -21.59369,-8.1063 -2.49718,-43.3372 c -1.37344,-23.8355 -2.50507,-316.9393 -2.51471,-651.3416 l -0.0176,-608.00441 18.32239,-8.14901 c 35.58892,-15.82842 977.38982,-325.22912 990.55522,-325.41749 8.2943,-0.11868 175.0302,54.02282 686.4254,222.89211 169.7232,56.04478 311.1913,103.58898 314.3736,105.65379 5.0942,3.30529 5.9362,76.76211 7.0418,614.32041 0.6906,335.8115 0.078,628.5329 -1.362,650.4922 l -2.6178,39.9259 -19.8534,8.7731 c -49.1978,21.7402 -895.0633,310.964 -962.9741,329.2662 -13.79,3.7165 -29.3184,6.0814 -34.5075,5.2554 z m -11.9164,-58.3739 c 2.7046,-5.0537 3.9931,-205.9818 3.9931,-622.7161 v -615.255 l -29.8945,-9.3276 C 1297.5625,1041.4018 1140.9061,990.23518 965.8791,932.82844 575.04532,804.6397 418.9148,754.49661 410.60728,754.49661 c -3.49666,0 -8.44053,2.08297 -10.98638,4.62881 -3.56117,3.56118 -4.62881,145.38417 -4.62881,614.88388 v 610.2551 l 16.39372,5.7406 c 9.01654,3.1573 208.20017,71.6634 442.63029,152.2356 234.4301,80.5723 434.0477,149.1831 443.5946,152.4686 24.3535,8.3809 37.4856,8.1081 42.2951,-0.8785 z m 158.0045,-21.9225 c 85.2808,-28.7789 671.1142,-229.5043 777.3668,-266.3509 46.7082,-16.1975 54.1869,-19.9424 56.5113,-28.2969 4.5313,-16.2864 3.9974,-1206.81514 -0.545,-1215.30268 -2.1962,-4.1036 -7.4009,-7.46111 -11.5659,-7.46111 -6.703,0 -148.7416,43.70638 -233.612,71.88424 l -31.231,10.36901 -2.5107,77.48672 c -1.3808,42.61772 -2.5152,98.48842 -2.5207,124.15722 0,25.6688 -1.151,60.1672 -2.5455,76.6631 l -2.5353,29.9926 -19.6444,8.655 c -27.4096,12.0762 -219.2777,79.2798 -269.1448,94.2705 -53.5811,16.1072 -55.1392,15.3738 -58.4787,-27.5264 -1.37,-17.6004 -2.5013,-80.8247 -2.5141,-140.4984 -0.019,-90.19271 -0.9694,-109.28302 -5.6319,-113.15255 -7.1925,-5.96925 -15.5708,-3.65013 -176.6507,48.89735 l -126.328,41.2108 v 614.7319 c 0,416.3737 1.2884,617.1394 3.993,622.193 2.1962,4.1036 7.7105,7.4611 12.2541,7.4611 4.5435,0 47.4436,-13.2226 95.3335,-29.3836 z m 387.9455,-1107.2031 c 63.6462,-22.1138 117.8901,-43.074 120.542,-46.5784 5.8131,-7.6817 6.9048,-246.35894 1.1683,-255.42648 -4.1712,-6.5934 -19.7168,-2.36949 -172.8201,46.95731 l -97.398,31.37969 v 129.68418 c 0,97.4299 1.1792,130.8634 4.7412,134.4254 6.7192,6.7193 13.6121,4.7802 143.7666,-40.4417 z M 1467.4193,989.61546 c 116.6047,-37.239 159.5136,-53.67202 161.04,-61.67416 0.7137,-3.74131 -5.1856,-8.99 -16.0215,-14.25447 C 1590.683,903.11755 1421.3326,839.43329 1064.479,707.62678 L 783.13041,603.70863 645.95708,648.67283 c -127.98295,41.95167 -173.90241,59.48631 -173.75903,66.35098 0.15471,7.40747 8.27073,13.59782 29.20695,22.2771 12.54447,5.20042 174.69108,59.68061 360.32579,121.06705 453.44621,149.94754 490.47661,161.95134 500.15611,162.13074 4.5896,0.085 52.0792,-13.8124 105.5324,-30.88324 z M 1803.1019,879.4313 c 127.7449,-41.29103 143.1567,-47.41302 141.7889,-56.32237 -1.4142,-9.21172 -1.3504,-9.18491 -192.1134,-80.70397 -359.5321,-134.79235 -645.3581,-238.63575 -656.838,-238.63575 -12.8685,0 -217.86438,69.46809 -222.89968,75.53523 -10.77233,12.97989 -7.87821,14.20851 312.70798,132.74969 157.2153,58.1325 458.3846,168.14659 520.7416,190.22156 11.4339,4.04774 18.8111,2.30341 96.6126,-22.84439 z m 310.7764,-102.17809 c 95.0887,-30.71477 132.8202,-45.11212 142.2826,-54.29121 7.5455,-7.31964 7.5546,-7.60271 0.4175,-12.90804 -6.7571,-5.02285 -561.6741,-190.88034 -791.4543,-265.08057 l -100.572,-32.47655 -84.2914,28.36622 c -46.3603,15.60143 -86.5912,30.27493 -89.4022,32.60779 -9.3955,7.79757 -5.2651,15.07696 12.9961,22.90465 47.3708,20.30547 684.4044,256.26835 809.2936,299.76944 19.14,6.6668 25.0162,5.56472 100.7301,-18.89173 z"
     id="path16"
     inkscape:connector-curvature="0" />
</svg>
