<?xml version="1.0" encoding="UTF-8" standalone="no"?>
<!-- Created with Inkscape (http://www.inkscape.org/) -->

<svg
   xmlns:dc="http://purl.org/dc/elements/1.1/"
   xmlns:cc="http://creativecommons.org/ns#"
   xmlns:rdf="http://www.w3.org/1999/02/22-rdf-syntax-ns#"
   xmlns:svg="http://www.w3.org/2000/svg"
   xmlns="http://www.w3.org/2000/svg"
   xmlns:sodipodi="http://sodipodi.sourceforge.net/DTD/sodipodi-0.dtd"
   xmlns:inkscape="http://www.inkscape.org/namespaces/inkscape"
   version="1.1"
   id="svg2"
   width="2731"
   height="2731"
   viewBox="0 0 2731 2731"
   sodipodi:docname="deliveryLogo.svg"
   inkscape:version="0.92.4 (5da689c313, 2019-01-14)">
  <metadata

     id="metadata8">
    <rdf:RDF>
      <cc:Work
         rdf:about="">
        <dc:format>image/svg+xml</dc:format>
        <dc:type
           rdf:resource="http://purl.org/dc/dcmitype/StillImage" />
        <dc:title></dc:title>
      </cc:Work>
    </rdf:RDF>
  </metadata>
  <defs
     id="defs6" />
  <sodipodi:namedview
     pagecolor="#ffffff"
     bordercolor="#666666"
     borderopacity="1"
     objecttolerance="10"
     gridtolerance="10"
     guidetolerance="10"
     inkscape:pageopacity="0"
     inkscape:pageshadow="2"
     inkscape:window-width="1920"
     inkscape:window-height="1001"
     id="namedview4"
     showgrid="false"
     inkscape:zoom="0.2592457"
     inkscape:cx="1365.5"
     inkscape:cy="1365.5"
     inkscape:window-x="-9"
     inkscape:window-y="-9"
     inkscape:window-maximized="1"
     inkscape:current-layer="svg2"
     inkscape:pagecheckerboard="true" />
  <path
     style="fill:#FEFEFE;fill-opacity:0.53211012;stroke:#000000;stroke-width:7.2894702;stroke-miterlimit:4;stroke-dasharray:none;stroke-opacity:1"
     d="m 1334.2555,2359.1571 c -10.6077,-4.0192 -166.8301,-57.837 -347.16101,-119.5951 -675.46597,-231.3275 -625.79171,-213.9217 -635.49753,-222.6773 -6.37831,-5.7538 -6.75035,-42.0545 -6.75035,-658.6391 V 705.69591 l 8.67903,-7.68467 c 4.9607,-4.39237 73.12984,-28.75855 159.11546,-56.87378 82.74004,-27.054 215.52913,-70.63076 295.08687,-96.83724 392.49153,-129.28752 550.37383,-180.35385 557.61033,-180.35666 7.5611,-0.003 84.2546,24.87354 663.2392,215.12973 137.9001,45.31441 271.1957,88.94051 296.2124,96.9469 25.0167,8.0064 48.8841,17.72382 53.0385,21.59427 7.4424,6.93363 7.5535,16.64883 7.5535,660.10904 0,649.3928 -0.044,653.1113 -7.7581,660.0928 -4.267,3.8616 -42.0208,18.7352 -83.8973,33.0526 -86.668,29.6312 -378.2547,129.6792 -700.9578,240.5096 -120.8887,41.5185 -224.1691,75.3977 -229.512,75.2872 -5.343,-0.1107 -18.3935,-3.4894 -29.0012,-7.5086 z m 1.9287,-679.903 V 1064.931 L 874.26716,913.44328 C 620.2128,830.12498 410.18038,762.01307 407.52846,762.08339 c -3.83638,0.10176 -4.82168,124.16846 -4.82168,607.13181 v 607.0039 l 33.75177,11.9317 c 31.53397,11.1475 451.86859,155.4681 615.96125,211.4883 40.4465,13.8082 117.8021,40.4831 171.9014,59.2775 54.0992,18.7944 101.3999,34.2816 105.1126,34.4161 6.4017,0.2318 6.7504,-31.4875 6.7504,-614.0786 z m 124.0726,595.2572 c 61.2994,-21.1366 339.258,-116.4841 631.9669,-216.7822 105.0162,-35.9843 200.9195,-69.0399 213.1183,-73.4569 l 22.1798,-8.031 v -607.015 c 0,-575.59316 -0.3495,-607.00738 -6.7504,-606.86971 -3.7127,0.0798 -63.164,18.82265 -132.1141,41.65064 l -125.3637,41.50546 -1.9286,151.08273 c -1.6258,127.35408 -2.8375,151.99038 -7.7147,156.86148 -5.1163,5.1098 -102.3977,40.3809 -273.043,98.9965 -30.3067,10.4101 -59.7034,18.9275 -65.3263,18.9275 -5.6227,0 -14.2406,-3.7742 -19.1508,-8.3871 l -8.9277,-8.3871 v -142.0493 c 0,-111.2648 -1.0449,-141.96939 -4.8216,-141.6802 -2.652,0.20289 -68.1786,21.46666 -145.6148,47.2525 l -140.7931,46.8833 -0.9762,614.2821 c -0.8393,528.2012 -0.2094,614.2821 4.495,614.2821 3.0091,0 30.3533,-8.5796 60.765,-19.0658 z m 425.599,-1120.8039 c 46.6739,-16.3264 92.2387,-32.276 101.2553,-35.4436 l 16.3937,-5.7593 V 989.43204 c 0,-67.68984 -1.3019,-123.00709 -2.893,-122.92725 -1.5912,0.0799 -59.3067,18.82308 -128.2567,41.65161 l -125.3637,41.50646 -1.0206,121.28574 c -0.5614,66.7071 -0.2106,123.3963 0.7792,125.976 1.3226,3.4464 8.7541,2.2739 28.0221,-4.4213 14.4221,-5.0113 64.4098,-22.4695 111.0837,-38.7959 z M 1488.0557,972.33884 c 68.1608,-22.32994 126.5323,-41.54052 129.7146,-42.6902 5.0299,-1.81716 4.9785,-2.5438 -0.3932,-5.56032 -3.3986,-1.90854 -192.6014,-72.26064 -420.4506,-156.33807 L 782.65523,614.88219 690.07895,645.04243 c -188.23797,61.32569 -210.55809,69.03257 -210.69006,72.74882 -0.138,3.8864 30.39824,14.20612 411.27199,138.98937 120.92772,39.61879 276.28232,90.8061 345.23232,113.74959 68.9501,22.94348 126.0095,41.87139 126.7988,42.06199 0.7894,0.1905 57.203,-17.92343 125.3637,-40.25336 z m 340.4456,-111.95002 c 57.0034,-18.46148 105.076,-34.86966 106.8279,-36.46263 1.7519,-1.59297 -1.7198,-4.62904 -7.7147,-6.74692 -5.995,-2.11784 -195.2561,-71.88027 -420.5803,-155.02761 l -409.6804,-151.177 -107.20383,35.41899 c -58.9621,19.48045 -108.51547,36.61574 -110.11862,38.07843 -1.60316,1.46269 57.41422,24.88989 131.14975,52.06046 326.6555,120.36828 496.407,183.02772 596.9459,220.34729 59.4031,22.05017 109.969,39.41265 112.3686,38.58329 2.3997,-0.82937 51.0022,-16.61282 108.0057,-35.0743 z m 318.9323,-104.42974 c 69.6109,-23.08851 109.8334,-38.21832 106.4504,-40.04157 -2.9908,-1.61181 -204.3866,-68.17408 -447.5461,-147.91615 l -442.1084,-144.98559 -82.4905,27.36532 c -45.3698,15.05093 -83.9127,28.65408 -85.6509,30.22925 -1.7382,1.57516 23.431,12.6707 55.9315,24.65677 32.5005,11.98607 220.5217,81.50881 417.8249,154.49498 197.3032,72.98616 360.3008,132.83845 362.217,133.00505 1.9162,0.16664 53.8336,-16.39703 115.3721,-36.80806 z"
     id="path12"
     inkscape:connector-curvature="0" />


</svg>
